<svg width="32" height="32" viewBox="0 0 32 32" fill="none" xmlns="http://www.w3.org/2000/svg">
<path d="M25.053 5.96007C24.1585 6.01119 23.2612 5.93941 22.3863 5.74674C21.3309 5.38534 20.3438 4.84897 19.4663 4.16007C18.7156 3.62793 18.0028 3.0443 17.333 2.41341C17.049 2.14815 16.6749 2.00061 16.2863 2.00061C15.8977 2.00061 15.5236 2.14815 15.2396 2.41341C14.5876 3.02435 13.9021 3.59857 13.1863 4.13341C12.3034 4.83136 11.3126 5.38079 10.253 5.76007C9.25634 5.98526 8.23255 6.06608 7.21295 6.00007C6.37809 5.9655 5.54574 5.88538 4.71962 5.76007C4.51775 5.73015 4.31191 5.74118 4.1144 5.79251C3.91688 5.84384 3.73172 5.93442 3.56996 6.05885C3.40821 6.18328 3.27316 6.33901 3.17288 6.51675C3.0726 6.6945 3.00914 6.89061 2.98629 7.09341C2.91962 7.73341 2.74629 9.40007 2.66629 11.2534C2.55417 13.1051 2.67061 14.9635 3.01295 16.7867C3.97834 19.8074 5.75388 22.5053 8.14629 24.5867C10.0479 26.3804 12.1098 27.9961 14.3063 29.4134C14.8949 29.8176 15.5922 30.0339 16.3063 30.0339C17.0203 30.0339 17.7176 29.8176 18.3063 29.4134C20.3863 27.9591 22.3318 26.3215 24.1196 24.5201C26.372 22.4234 28.04 19.7766 28.9596 16.8401" stroke="#1A202C" stroke-width="2.5" stroke-linecap="round" stroke-linejoin="round"/>
<path d="M14.6665 14.6667L18.4798 18.48C18.5036 18.5059 18.5324 18.5265 18.5645 18.5406C18.5967 18.5548 18.6314 18.5621 18.6665 18.5621C18.7016 18.5621 18.7363 18.5548 18.7685 18.5406C18.8006 18.5265 18.8294 18.5059 18.8532 18.48L29.3332 8" stroke="#3563E9" stroke-width="2.5" stroke-linecap="round" stroke-linejoin="round"/>
</svg>
