<svg width="92" height="20" viewBox="0 0 92 20" fill="none" xmlns="http://www.w3.org/2000/svg">
<path d="M18.9203 12.4191C17.6374 17.7763 12.4259 21.0365 7.27975 19.7006C2.13573 18.365 -0.995769 12.9388 0.287684 7.58198C1.56994 2.22422 6.7815 -1.03637 11.9261 0.299246C17.0719 1.63486 20.2031 7.06168 18.9203 12.4191Z" fill="#FCA014"/>
<path d="M13.8387 8.57478C14.0299 7.24417 13.0568 6.52886 11.7262 6.05168L12.1578 4.24919L11.104 3.97576L10.6838 5.73074C10.4068 5.65887 10.1222 5.59106 9.83946 5.52387L10.2627 3.75732L9.20944 3.48389L8.77752 5.28574C8.5482 5.23137 8.32309 5.17762 8.10457 5.12106L8.10577 5.11544L6.65244 4.73762L6.3721 5.90949C6.3721 5.90949 7.15399 6.09605 7.13749 6.10761C7.5643 6.21855 7.64144 6.5126 7.62853 6.74573L7.13688 8.79915C7.1663 8.80696 7.20442 8.81821 7.24644 8.83571C7.21133 8.82665 7.17381 8.81665 7.13509 8.80696L6.44593 11.6835C6.3937 11.8185 6.26134 12.021 5.96299 11.9441C5.97349 11.9601 5.197 11.7451 5.197 11.7451L4.67383 13.001L6.04523 13.3569C6.30036 13.4235 6.55038 13.4932 6.79651 13.5588L6.36039 15.3819L7.41303 15.6553L7.84494 13.8516C8.13249 13.9328 8.41163 14.0078 8.68477 14.0785L8.25436 15.8738L9.30819 16.1472L9.74431 14.3275C11.5413 14.6816 12.8926 14.5388 13.4614 12.8466C13.9197 11.4841 13.4386 10.6982 12.4931 10.1857C13.1817 10.0204 13.7003 9.54883 13.8387 8.57478ZM11.4309 12.0901C11.1052 13.4525 8.90178 12.716 8.18742 12.5313L8.76611 10.116C9.48048 10.3016 11.7712 10.6691 11.4309 12.0901ZM11.7568 8.55509C11.4597 9.79445 9.62575 9.16477 9.03085 9.01039L9.55552 6.8198C10.1504 6.97417 12.0663 7.26229 11.7568 8.55509Z" fill="white"/>
<g opacity="0.5">
<path d="M28.1475 6.04988C28.9264 6.04988 29.5993 6.19519 30.1648 6.4805C30.733 6.76862 31.2018 7.15674 31.5779 7.64486C31.9489 8.13548 32.225 8.70891 32.4033 9.36609C32.5804 10.0252 32.6693 10.7336 32.6693 11.492C32.6693 12.657 32.4643 13.7576 32.0504 14.7951C31.6364 15.8342 31.0749 16.7354 30.3605 17.5041C29.6467 18.2719 28.8039 18.8773 27.832 19.3244C26.8616 19.7719 25.8066 19.9957 24.6738 19.9957C24.5273 19.9957 24.2698 19.9913 23.906 19.9835C23.5422 19.9757 23.1241 19.9366 22.6559 19.8707C22.1846 19.8022 21.6864 19.701 21.1602 19.5654C20.6343 19.4322 20.1349 19.2457 19.6646 19.0088L23.8703 0.61025L27.6372 0.00244141L26.1313 6.53144C26.4537 6.38019 26.7785 6.263 27.1026 6.17769C27.4271 6.09363 27.7753 6.04988 28.1475 6.04988ZM24.9878 16.8845C25.555 16.8845 26.0896 16.7391 26.5918 16.4538C27.0954 16.1682 27.5301 15.7826 27.8941 15.3023C28.2582 14.8198 28.5464 14.2764 28.7565 13.6692C28.9666 13.062 29.0728 12.4286 29.0728 11.7695C29.0728 10.9598 28.9429 10.3283 28.6838 9.87172C28.4248 9.41704 27.9455 9.18828 27.2494 9.18828C27.0213 9.18828 26.7274 9.23359 26.3631 9.31453C25.9975 9.40047 25.6703 9.57891 25.3771 9.84734L23.7736 16.781C23.8703 16.7988 23.9558 16.8157 24.0288 16.8316C24.1002 16.8488 24.1791 16.861 24.2578 16.8695C24.3409 16.8791 24.4361 16.8841 24.551 16.8841C24.666 16.8841 24.8098 16.8845 24.9878 16.8845Z" fill="#90A3BF"/>
<path d="M36.5755 19.6434H32.9775L36.016 6.33202H39.6385L36.5755 19.6434ZM38.3263 4.71016C37.8241 4.71016 37.3688 4.55454 36.9648 4.24266C36.5575 3.93267 36.3558 3.45549 36.3558 2.81237C36.3558 2.45862 36.4248 2.12674 36.5617 1.81362C36.7006 1.50113 36.8822 1.23207 37.1097 1.00332C37.337 0.77645 37.6002 0.595198 37.8991 0.458637C38.1999 0.324263 38.5199 0.25708 38.8608 0.25708C39.3627 0.25708 39.8156 0.412704 40.2211 0.724576C40.6251 1.03801 40.8283 1.51519 40.8283 2.15487C40.8283 2.50987 40.7596 2.84299 40.6215 3.15549C40.4844 3.46798 40.3028 3.73704 40.0753 3.96579C39.8498 4.19297 39.5842 4.3736 39.2859 4.50891C38.9848 4.64547 38.666 4.71016 38.3263 4.71016Z" fill="#90A3BF"/>
<path d="M42.7914 3.01528L46.5598 2.40747L45.6344 6.33118H49.6703L48.9415 9.41802H44.9299L43.8614 14.0742C43.7629 14.4624 43.7071 14.8248 43.6915 15.1617C43.6738 15.5001 43.7149 15.7908 43.8122 16.0355C43.9088 16.2808 44.0826 16.4698 44.3347 16.6036C44.5857 16.7395 44.945 16.808 45.4162 16.808C45.8043 16.808 46.1825 16.7695 46.5481 16.6933C46.9116 16.6183 47.2798 16.5139 47.6526 16.3773L47.921 19.2636C47.4347 19.4492 46.9083 19.6089 46.341 19.7432C45.7728 19.8795 45.1001 19.9451 44.3227 19.9451C43.205 19.9451 42.3384 19.7723 41.721 19.4282C41.1045 19.0817 40.6687 18.6082 40.4078 18.0089C40.1506 17.4117 40.0356 16.7233 40.0678 15.9476C40.1011 15.1702 40.2136 14.353 40.4078 13.4924L42.7914 3.01528Z" fill="#90A3BF"/>
</g>
<path d="M49.5127 14.3277C49.5127 13.1812 49.691 12.0999 50.0473 11.0878C50.4029 10.0746 50.9153 9.18871 51.5801 8.4284C52.2426 7.67185 53.0497 7.07248 53.9997 6.63248C54.9452 6.19498 56.0038 5.97437 57.1705 5.97437C57.9008 5.97437 58.553 6.04624 59.1269 6.1903C59.7032 6.33561 60.2245 6.52343 60.6961 6.75905L59.4552 9.69652C59.1311 9.55965 58.7946 9.43902 58.4467 9.32964C58.0986 9.21808 57.6735 9.16434 57.1708 9.16434C55.9699 9.16434 55.0205 9.59527 54.3139 10.4543C53.6101 11.314 53.2556 12.4712 53.2556 13.9227C53.2556 14.783 53.4339 15.4786 53.7917 16.0108C54.1477 16.543 54.8053 16.8077 55.7601 16.8077C56.2313 16.8077 56.686 16.7564 57.1216 16.6565C57.5604 16.5552 57.9479 16.4277 58.2892 16.2771L58.5578 19.2883C58.1028 19.472 57.6009 19.638 57.0504 19.7833C56.4987 19.9236 55.842 19.9964 55.0805 19.9964C54.0753 19.9964 53.2244 19.8433 52.5283 19.5417C51.832 19.2355 51.2566 18.8289 50.8033 18.3139C50.3477 17.7977 50.0206 17.1949 49.8183 16.503C49.6159 15.8118 49.5127 15.0855 49.5127 14.3277Z" fill="#90A3BF"/>
<path d="M65.4947 19.9964C64.636 19.9964 63.8901 19.8602 63.2574 19.5905C62.6264 19.3208 62.1039 18.9424 61.6906 18.4517C61.2766 17.9636 60.9669 17.3852 60.7547 16.7186C60.5425 16.0524 60.4404 15.3146 60.4404 14.5062C60.4404 13.4921 60.5968 12.4784 60.9129 11.4674C61.2274 10.4543 61.6942 9.54402 62.3119 8.73497C62.9248 7.92466 63.6809 7.26216 64.5711 6.7456C65.4605 6.23248 66.4834 5.97437 67.6324 5.97437C68.4755 5.97437 69.2175 6.11092 69.8589 6.38061C70.4973 6.64967 71.0232 7.03123 71.4389 7.51935C71.8501 8.00997 72.1626 8.58591 72.3727 9.2534C72.5843 9.91839 72.6888 10.6581 72.6888 11.4671C72.6888 12.478 72.5345 13.4918 72.2283 14.5058C71.9219 15.5149 71.4671 16.4274 70.8668 17.2383C70.2677 18.0474 69.5186 18.7096 68.6187 19.2239C67.72 19.7383 66.6779 19.9964 65.4947 19.9964ZM67.2929 9.16465C66.7596 9.16465 66.288 9.32589 65.8843 9.64432C65.4791 9.96651 65.1387 10.3715 64.8644 10.8599C64.587 11.3506 64.3814 11.8856 64.2425 12.4671C64.1047 13.0499 64.0372 13.6009 64.0372 14.1243C64.0372 14.969 64.168 15.6268 64.4253 16.1002C64.6861 16.5711 65.1546 16.808 65.8357 16.808C66.3709 16.808 66.84 16.648 67.2461 16.3261C67.6489 16.0065 67.9896 15.6011 68.266 15.1118C68.5416 14.6237 68.749 14.0871 68.8879 13.5046C69.0239 12.9237 69.0932 12.3696 69.0932 11.8471C69.0932 11.0046 68.963 10.3453 68.7033 9.87245C68.444 9.40152 67.9734 9.16465 67.2929 9.16465Z" fill="#90A3BF"/>
<path d="M76.6102 19.6434H73.0093L76.0477 6.33202H79.6721L76.6102 19.6434ZM78.3583 4.71016C77.8564 4.71016 77.4014 4.55454 76.998 4.24266C76.5928 3.93267 76.3893 3.45549 76.3893 2.81237C76.3893 2.45862 76.4592 2.12674 76.5964 1.81362C76.7336 1.50113 76.9164 1.23207 77.1439 1.00332C77.3699 0.77645 77.6355 0.595198 77.9339 0.458637C78.2328 0.324263 78.5528 0.25708 78.8926 0.25708C79.3956 0.25708 79.8501 0.412704 80.2547 0.724576C80.6596 1.03801 80.864 1.51519 80.864 2.15487C80.864 2.50987 80.7913 2.84299 80.6554 3.15549C80.5194 3.46798 80.3366 3.73704 80.11 3.96579C79.8819 4.19297 79.6195 4.3736 79.3206 4.50891C79.0192 4.64547 78.6999 4.71016 78.3583 4.71016Z" fill="#90A3BF"/>
<path d="M82.2658 6.93733C82.5389 6.8542 82.8438 6.75421 83.1755 6.64546C83.5084 6.53671 83.8803 6.43546 84.2957 6.34421C84.7066 6.25015 85.1703 6.1739 85.6803 6.11484C86.1903 6.05453 86.7713 6.02515 87.417 6.02515C89.3145 6.02515 90.6226 6.60046 91.3448 7.74764C92.0663 8.89481 92.1912 10.4648 91.723 12.4548L90.0679 19.6422H86.4463L88.0503 12.606C88.1482 12.1667 88.225 11.742 88.2817 11.327C88.3391 10.9157 88.3357 10.5532 88.2688 10.2395C88.2049 9.92949 88.0542 9.67574 87.8204 9.47918C87.583 9.28574 87.2243 9.18856 86.7377 9.18856C86.2686 9.18856 85.7913 9.24106 85.3042 9.34231L82.9459 19.6419H79.3228L82.2658 6.93733Z" fill="#90A3BF"/>
</svg>
