<?xml version="1.0" encoding="utf-8"?>
<!-- Uploaded to: SVG Repo, www.svgrepo.com, Generator: SVG Repo Mixer Tools -->
<svg fill="#000000" height="800px" width="800px" version="1.1" id="Layer_1" xmlns="http://www.w3.org/2000/svg" xmlns:xlink="http://www.w3.org/1999/xlink" 
	 viewBox="0 0 64 64" enable-background="new 0 0 64 64" xml:space="preserve">
<path id="Gear-box_1_" d="M51.4560013,58.9450493C50.7681007,58.29245,49.9188995,57.8595505,49,57.6498489v-3.8351974
	c0-3.4819031-2.7382927-6.3149033-6.1035004-6.3149033H42v-3.6855965c0-1.6836014-0.6397018-3.2656021-1.8008003-4.4546013
	c-0.8711014-0.8951988-1.9980011-1.4995003-3.2020988-1.7409019L35.0237045,15.91185
	c2.9298935-1.1890001,5.0035934-4.0606003,5.0035934-7.4116001c0-4.4112-3.5887985-8-7.9999962-8
	c-4.4111023,0-8.0000019,3.5888-8.0000019,8c0,3.3509998,2.073801,6.2226,5.0037003,7.4116001l-1.9724007,21.6982002
	c-1.2250996,0.2338982-2.3736,0.8403015-3.2577991,1.7486C22.6396008,40.5490494,22,42.1315498,22,43.8141518v3.6855965h-0.8964996
	c-3.3652,0-6.1035004,2.8330002-6.1035004,6.3149033v3.8354988c-0.9189997,0.2094002-1.7685995,0.642498-2.4569998,1.2958984
	c-0.9804993,0.9326019-1.5429993,2.2280006-1.5429993,3.5536995l1,1h40l1-1C53,61.1740494,52.4375,59.8786507,51.4560013,58.9450493
	z M26.0272999,8.5002499c0-3.3085999,2.6914062-6,6.0000019-6s5.9999962,2.6913998,5.9999962,6
	c0,3.3080997-2.6913986,5.9990005-5.9999962,5.9990005S26.0272999,11.8083496,26.0272999,8.5002499z M32.0273018,16.4992504
	c0.3512993,0,0.6948967-0.0305004,1.0341988-0.0747013l1.8710976,20.5751991h-5.8104973l1.8710995-20.5751991
	C31.3325005,16.46875,31.6760006,16.4992504,32.0273018,16.4992504z M24,43.8141518
	c0-1.1411018,0.4491997-2.2563019,1.2334003-3.0596008c0.7880993-0.8090019,1.8339996-1.2548027,2.9453049-1.2548027h7.6425953
	c1.1112976,0,2.1571999,0.4453011,2.9453011,1.2558022C39.5508003,41.5578499,40,42.6730499,40,43.8141518v3.6855965H24V43.8141518z
	 M17,53.8146515c0-2.3794022,1.8408012-4.3149033,4.1035004-4.3149033H23h18h1.8964996
	C45.1591988,49.4997482,47,51.4352493,47,53.8146515v3.6850967H17V53.8146515z M13.1816006,61.4997482
	c0.1553001-0.4096985,0.4042997-0.7856979,0.7392998-1.1035995c0.6006002-0.5697975,1.4345999-0.8964005,2.2889996-0.8964005
	h31.580101c0.8544998,0,1.6884995,0.3266029,2.2880974,0.8955002c0.3350029,0.3183022,0.5850029,0.6948013,0.7402,1.1044998
	H13.1816006z"/>
</svg>